<svg id="Layer_1" data-name="Layer 1" xmlns="http://www.w3.org/2000/svg" viewBox="0 0 57 42" fill="#267cee"><title>Items Added0</title><path d="M55.12.75H46.36A3.52,3.52,0,0,0,43.11,3.2l-2.52,8.92L40,12a2.66,2.66,0,0,0-.7-.1H19l-.1-.44A9,9,0,1,0,8.81,22.35l.51.07,0,.51a.86.86,0,0,0,0,.12l.5,5a3,3,0,0,0,2.94,2.67h22a3.48,3.48,0,0,0,3.23-2.47l2.75-10.16L44.76,3.67a1.83,1.83,0,0,1,1.59-1.21h8.76a.86.86,0,1,0,0-1.71Zm-45.05,20a7.32,7.32,0,1,1,7.32-7.32A7.33,7.33,0,0,1,10.06,20.73Zm29.86-6.38L36.28,27.83A1.8,1.8,0,0,1,34.71,29h-22a1.29,1.29,0,0,1-1.24-1.12L11,22.41l.53-.08a9,9,0,0,0,7.57-8.21l0-.52H40Z"/><path d="M16.91,33.51a3.87,3.87,0,1,0,3.87,3.87A3.87,3.87,0,0,0,16.91,33.51Zm0,6a2.15,2.15,0,1,1,2.15-2.15A2.16,2.16,0,0,1,16.91,39.54Z"/><path d="M31,33.51a3.87,3.87,0,1,0,3.87,3.87A3.87,3.87,0,0,0,31,33.51Zm0,6a2.15,2.15,0,1,1,2.15-2.15A2.16,2.16,0,0,1,31,39.54Z"/><path d="M13.59,12.55H10.92V9.87a.86.86,0,1,0-1.71,0v2.68H6.53a.86.86,0,1,0,0,1.71H9.2v2.68a.86.86,0,0,0,1.71,0V14.27h2.68a.86.86,0,1,0,0-1.71Z"/></svg>