<svg id="Layer_1" data-name="Layer 1" xmlns="http://www.w3.org/2000/svg" viewBox="0 0 42 42" fill="#34bfa3"><title>Bundle Views0</title><path d="M41.44,28.86l-6.22-3.54,6.22-3.56a.92.92,0,0,0,0-1.6l-6.22-3.53,6.23-3.56a.92.92,0,0,0,0-1.6L21.45.12a.92.92,0,0,0-.91,0L.56,11.47a.92.92,0,0,0,0,1.6l6.23,3.56L.56,20.16a.92.92,0,0,0,0,1.6l6.23,3.56L.56,28.86a.92.92,0,0,0,0,1.6l20,11.42a.92.92,0,0,0,.91,0l20-11.42a.92.92,0,0,0,0-1.6ZM8.51,17.62l12.43,7.1.06,0,12.49-7.13L39.39,21,21,31.48,2.61,21ZM21,22.78,2.61,12.28,21,1.83,39.39,12.28ZM8.51,26.31l12.43,7.1.06,0,12.49-7.13,5.9,3.35L21,40.17,2.61,29.66Z"/></svg>