<svg id="Layer_1" data-name="Layer 1" xmlns="http://www.w3.org/2000/svg" viewBox="0 0 42 42"><title>Delete0</title><path d="M28.64,2.06A2.07,2.07,0,0,0,26.57,0H15.43a2.07,2.07,0,0,0-2.07,2.06V6.54H1.48V8.4H5L7.85,41.15a.92.92,0,0,0,.92.85H33.17a.93.93,0,0,0,.92-.85L37,8.4h3.55V6.54H28.64ZM15.22,1.86H26.78V6.54H15.22ZM35.11,8.4l-2.8,31.75H9.63L6.83,8.4Z"/><rect x="17.9" y="23.34" width="18.64" height="1.86" transform="translate(1.99 50.6) rotate(-87.94)"/><rect x="13.84" y="14.95" width="1.86" height="18.64" transform="translate(-0.88 0.56) rotate(-2.1)"/><rect x="20.07" y="14.95" width="1.86" height="18.63"/></svg>