<svg id="Layer_1" data-name="Layer 1" xmlns="http://www.w3.org/2000/svg" viewBox="0 0 42 42"><title>edit0</title><path d="M27.5,17H10a.92.92,0,1,0,0,1.85H27.5a.92.92,0,0,0,0-1.85Z"/><path d="M9.06,24.74a.92.92,0,0,0,.92.92H20.62a.92.92,0,0,0,0-1.85H10A.92.92,0,0,0,9.06,24.74Z"/><path d="M27.5,10.21H10a.92.92,0,0,0,0,1.85H27.5a.92.92,0,0,0,0-1.85Z"/><path d="M38.47,24.41a4.33,4.33,0,0,0-6.12,0L23,33.73a.92.92,0,0,0-.23.38l-2,6.7a.92.92,0,0,0,.22.91.94.94,0,0,0,.91.25l6.87-1.9a.93.93,0,0,0,.41-.24l9.32-9.3A4.33,4.33,0,0,0,38.47,24.41ZM28,38.35l-5,1.39,1.48-4.87,7-7L35,31.4Zm9.15-9.13-.88.88-3.51-3.51.88-.88a2.48,2.48,0,0,1,3.51,3.51Z"/><path d="M14,40.15H8.29A4.19,4.19,0,0,1,4.11,36V6A4.19,4.19,0,0,1,8.29,1.85H29.21A4.19,4.19,0,0,1,33.39,6V16.49a.92.92,0,1,0,1.85,0V6a6,6,0,0,0-6-6H8.29a6,6,0,0,0-6,6V36a6,6,0,0,0,6,6H14a.92.92,0,0,0,0-1.85Z"/></svg>