<svg id="Layer_1" data-name="Layer 1" xmlns="http://www.w3.org/2000/svg" viewBox="0 0 42 42" fill="#267cee"><title>Total sales from0</title><path d="M21,0A21,21,0,1,0,42,21,21,21,0,0,0,21,0ZM36.47,21.9h3.69A19.19,19.19,0,0,1,21.9,40.15V36.46a.9.9,0,0,0-1.8,0v3.69A19.19,19.19,0,0,1,1.85,21.9H5.54a.9.9,0,0,0,0-1.8H1.85A19.19,19.19,0,0,1,20.1,1.85V5.54a.9.9,0,0,0,1.8,0V1.85A19.19,19.19,0,0,1,40.15,20.1H36.46a.9.9,0,0,0,0,1.8Z"/><path d="M21.9,20.63V11.54a.9.9,0,1,0-1.8,0V21a.9.9,0,0,0,.26.63l8.86,9a.9.9,0,1,0,1.29-1.26h0Z"/></svg>