<svg id="Layer_1" data-name="Layer 1" xmlns="http://www.w3.org/2000/svg" viewBox="0 0 42 42" fill="#34bfa3"><title>Total purchased0</title><path d="M38.92,20.13h-6V.87A.87.87,0,0,0,31.43.25L29.15,2.54,26.87.25a.87.87,0,0,0-1.23,0L23.36,2.54,21.07.25a.87.87,0,0,0-1.23,0L17.56,2.54,15.28.25a.87.87,0,0,0-1.23,0L11.77,2.54,9.49.25a.87.87,0,0,0-1.23,0L6,2.54,3.69.25a.87.87,0,0,0-1.22,0,.86.86,0,0,0-.26.64v36.8A4.31,4.31,0,0,0,6.52,42h29a4.31,4.31,0,0,0,4.31-4.31V21A.87.87,0,0,0,38.92,20.13Zm-.87,1.74V37.69a2.57,2.57,0,1,1-5.14,0V21.87Zm-6,18.4H6.52a2.57,2.57,0,0,1-2.57-2.57V3L5.36,4.38a.87.87,0,0,0,1.23,0L8.87,2.1l2.28,2.28a.87.87,0,0,0,1.23,0L14.67,2.1l2.28,2.28a.87.87,0,0,0,1.23,0L20.46,2.1l2.28,2.28a.87.87,0,0,0,1.23,0L26.25,2.1l2.28,2.28a.87.87,0,0,0,1.23,0L31.18,3V37.69A4.26,4.26,0,0,0,32,40.26Z"/><path d="M17.56,17.16a1.33,1.33,0,0,1-1.42-1.21.87.87,0,0,0-1.74,0,3,3,0,0,0,2.29,2.84v.63a.87.87,0,0,0,1.74,0v-.63a3,3,0,0,0,2.29-2.84A3.06,3.06,0,0,0,17.56,13a1.33,1.33,0,0,1-1.42-1.21,1.33,1.33,0,0,1,1.42-1.21A1.33,1.33,0,0,1,19,11.79a.87.87,0,1,0,1.74,0A3,3,0,0,0,18.43,9V8.44a.87.87,0,0,0-1.74,0V9a3,3,0,0,0-2.29,2.83,3.06,3.06,0,0,0,3.16,2.95A1.33,1.33,0,0,1,19,15.95,1.33,1.33,0,0,1,17.56,17.16Z"/><path d="M24.19,14.74h1.59a.87.87,0,0,0,0-1.74H24.19a.87.87,0,1,0,0,1.74Z"/><path d="M10.94,13H9.34a.87.87,0,0,0,0,1.74h1.59a.87.87,0,1,0,0-1.74Z"/><path d="M26.2,22.1h-13a.87.87,0,0,0,0,1.74h13a.87.87,0,0,0,0-1.74Z"/><path d="M8.93,22.1a.87.87,0,1,0,.61.25A.87.87,0,0,0,8.93,22.1Z"/><path d="M26.2,27.5h-13a.87.87,0,0,0,0,1.74h13a.87.87,0,0,0,0-1.74Z"/><path d="M8.93,27.5a.87.87,0,1,0,.61.26A.87.87,0,0,0,8.93,27.5Z"/><path d="M26.2,32.9h-13a.87.87,0,1,0,0,1.74h13a.87.87,0,1,0,0-1.74Z"/><path d="M8.93,32.9a.87.87,0,1,0,.61.25A.87.87,0,0,0,8.93,32.9Z"/></svg>