<svg id="Layer_1" data-name="Layer 1" xmlns="http://www.w3.org/2000/svg" viewBox="0 0 42 42" fill="#ff9149"><title>Added to Cart0</title><path d="M41.51,19.52H40a.18.18,0,0,1-.18-.18v-9a4.07,4.07,0,0,0-4.07-4.07H33.12A.18.18,0,0,1,33,6.16L30.24,1.27a2.46,2.46,0,0,0-3.35-1L16.25,6.23l-.09,0H4.28A4.07,4.07,0,0,0,.21,10.32V37.93A4.07,4.07,0,0,0,4.28,42H35.71a4.07,4.07,0,0,0,4.07-4.07V30a.18.18,0,0,1,.18-.18h1.56a.27.27,0,0,0,.27-.27v-9.8A.27.27,0,0,0,41.51,19.52Zm-28-9.65a.17.17,0,0,1,.08-.2L27.73,1.8a.73.73,0,0,1,.35-.09.77.77,0,0,1,.21,0,.75.75,0,0,1,.45.35L33,9.74a.18.18,0,0,1-.15.26H13.66A.17.17,0,0,1,13.49,9.87Zm-11.57.45A2.36,2.36,0,0,1,4.28,8h8.18a.17.17,0,0,1,.17.13.17.17,0,0,1-.08.2L9.5,10l-.09,0H4.81a.87.87,0,0,0-.87.68.85.85,0,0,0,.84,1H37.9a.18.18,0,0,1,.18.18v7.46a.18.18,0,0,1-.18.18H32.24a5,5,0,0,0-5,5v.35a5,5,0,0,0,5,5H37.9a.18.18,0,0,1,.18.18v7.88a2.37,2.37,0,0,1-2.36,2.36H4.28a2.37,2.37,0,0,1-2.36-2.36Zm27,14.55v-.35a3.3,3.3,0,0,1,3.29-3.29h7.67a.18.18,0,0,1,.18.18V28a.18.18,0,0,1-.18.18H32.24A3.3,3.3,0,0,1,28.95,24.87ZM34.11,8.22A.18.18,0,0,1,34.26,8h1.44A2.34,2.34,0,0,1,38,9.79a.16.16,0,0,1,0,.14.18.18,0,0,1-.14.07H35.21a.18.18,0,0,1-.15-.09Z"/><path d="M32.93,26.59a1.82,1.82,0,1,0-.07,0Z"/></svg>