<svg fill="#4f5a6e" id="Layer_1" data-name="Layer 1" xmlns="http://www.w3.org/2000/svg" viewBox="0 0 56 42"><defs><style>.cls-1{fill:none;}</style></defs><title>Total number of  copy0</title><path class="cls-1" d="M28.44,20.55a12.82,12.82,0,1,0-3.64,4.32A12.79,12.79,0,0,0,28.44,20.55Zm-10,2.54-.25.07v1.49a1,1,0,0,1-2,0V23.16l-.25-.07a4.76,4.76,0,0,1-2.72-2A1,1,0,0,1,14,19.54l.21,0a1,1,0,0,1,.64.43,2.68,2.68,0,0,0,.75.76l.52.36V15.66l-.25-.07a4.77,4.77,0,0,1,0-9.19l.25-.07V4.84a1,1,0,0,1,2,0V6.33l.25.07a4.76,4.76,0,0,1,2.72,2,1,1,0,0,1-1.69,1.12,2.72,2.72,0,0,0-.75-.76l-.53-.36v5.46l.25.07a4.76,4.76,0,0,1,0,9.19Z"/><path class="cls-1" d="M14.4,11a2.73,2.73,0,0,0,1.2,2.26l.52.36V8.38l-.52.36A2.73,2.73,0,0,0,14.4,11Z"/><path class="cls-1" d="M18.68,16.24l-.52-.36v5.24l.52-.36a2.73,2.73,0,0,0,0-4.52Z"/><path class="cls-1" d="M47.58,5.16H42.35a.65.65,0,0,0-.65.65V39.7h6.53V5.81A.65.65,0,0,0,47.58,5.16Z"/><path class="cls-1" d="M7.89,30.16V39.7h6.53V30.16a.64.64,0,0,0-.06-.26,15.27,15.27,0,0,1-1.63-.39H8.54A.65.65,0,0,0,7.89,30.16Z"/><path d="M52.79,39.7H50.53V5.81a3,3,0,0,0-2.95-2.95H42.35a3,3,0,0,0-3,2.95V39.7H33.63V21.2A2.94,2.94,0,0,0,32,18.61a15.3,15.3,0,0,1-.79,2.32.64.64,0,0,1,.07.28V39.7H24.8V28.11a15.34,15.34,0,0,1-2.3,1.07V39.7H16.72V30.14a15.41,15.41,0,0,1-2.36-.24.64.64,0,0,1,.06.26V39.7H7.89V30.16a.65.65,0,0,1,.65-.65h4.19a15.35,15.35,0,0,1-4.57-2.26,3,3,0,0,0-2.57,2.91V39.7H3.21a1.15,1.15,0,1,0,0,2.3H52.79a1.15,1.15,0,1,0,0-2.3Zm-4.56,0H41.7V5.81a.65.65,0,0,1,.65-.65h5.23a.65.65,0,0,1,.65.65Z"/><path d="M9.3,27.21h4.47a3,3,0,0,1,2.86,2.25l.51,0a14.65,14.65,0,0,0,5.36-1V26.26a12.75,12.75,0,1,1,6.86-8h1.32a2.92,2.92,0,0,1,.74.11A14.74,14.74,0,1,0,9.3,27.21Z"/><path d="M28.44,20.55a12.79,12.79,0,0,1-3.64,4.32v2.45a14.82,14.82,0,0,0,5.89-6.77H28.44Z"/><path d="M13.77,27.21H9.3a14.63,14.63,0,0,0,7.33,2.25A3,3,0,0,0,13.77,27.21Z"/><path d="M29.36,18.25a12.62,12.62,0,0,1-.91,2.3h2.25a14.64,14.64,0,0,0,.73-2.2,2.92,2.92,0,0,0-.74-.11Z"/><path d="M22.5,26.26v2.21a14.67,14.67,0,0,0,2.3-1.14V24.88A12.72,12.72,0,0,1,22.5,26.26Z"/><path d="M18.4,13.9l-.25-.07V8.37l.53.36a2.72,2.72,0,0,1,.75.76,1,1,0,0,0,1.69-1.12,4.76,4.76,0,0,0-2.72-2l-.25-.07V4.84a1,1,0,0,0-2,0V6.33l-.25.07a4.77,4.77,0,0,0,0,9.19l.25.07v5.46l-.52-.36a2.68,2.68,0,0,1-.75-.76,1,1,0,0,0-.64-.43l-.21,0a1,1,0,0,0-.84,1.57,4.76,4.76,0,0,0,2.72,2l.25.07v1.49a1,1,0,0,0,2,0V23.16l.25-.07a4.76,4.76,0,0,0,0-9.19Zm-2.27-.29-.52-.36a2.73,2.73,0,0,1,0-4.52l.52-.36Zm2.55,7.15-.52.36V15.88l.52.36a2.73,2.73,0,0,1,0,4.52Z"/></svg>