<svg id="Layer_1" data-name="Layer 1" xmlns="http://www.w3.org/2000/svg" viewBox="0 0 56 42" fill="#34bfa3"><title>Total upsells viewed0</title><path d="M55,40.11H52.23V2.9A2.91,2.91,0,0,0,49.33,0H43.63a2.91,2.91,0,0,0-2.91,2.9V40.11H33.82V19.66a2.91,2.91,0,0,0-2.9-2.9h-5.7a2.91,2.91,0,0,0-2.9,2.9V40.11H15.41V29.42a2.91,2.91,0,0,0-2.9-2.9H6.81a2.91,2.91,0,0,0-2.9,2.9v10.7H1A.94.94,0,1,0,1,42H55a.94.94,0,1,0,0-1.89Zm-41.47,0H5.79V29.42a1,1,0,0,1,1-1h5.7a1,1,0,0,1,1,1Zm18.41,0H24.2V19.66a1,1,0,0,1,1-1h5.7a1,1,0,0,1,1,1Zm18.41,0H42.61V2.9a1,1,0,0,1,1-1h5.69a1,1,0,0,1,1,1Z"/></svg>